<?xml version="1.0" standalone="no"?>
<!DOCTYPE svg PUBLIC "-//W3C//DTD SVG 20010904//EN"
 "http://www.w3.org/TR/2001/REC-SVG-20010904/DTD/svg10.dtd">
<svg version="1.0" xmlns="http://www.w3.org/2000/svg"
 width="439.000000pt" height="440.000000pt" viewBox="0 0 439.000000 440.000000"
 preserveAspectRatio="xMidYMid meet">

<g transform="translate(0.000000,440.000000) scale(0.100000,-0.100000)"
fill="#FFFFFF" stroke="none">
<path d="M2202 3140 c-78 -11 -148 -33 -227 -73 -100 -49 -145 -85 -145 -112
0 -35 21 -32 91 16 258 176 603 150 834 -62 69 -64 138 -174 169 -270 21 -64
29 -114 34 -213 l7 -129 40 -12 c106 -31 125 -62 125 -207 0 -182 -36 -244
-211 -360 l-110 -73 -44 -90 c-52 -107 -104 -169 -186 -224 -163 -109 -388
-113 -550 -10 -78 50 -156 140 -195 226 -44 96 -59 112 -161 174 -95 58 -164
130 -188 197 -22 61 -31 205 -16 259 14 51 66 99 118 109 21 4 41 12 45 18 4
6 8 61 8 122 0 156 38 275 127 397 37 49 38 77 4 77 -14 0 -34 -21 -62 -61
-81 -120 -117 -232 -126 -395 l-6 -102 -43 -17 c-50 -19 -97 -68 -114 -120 -8
-25 -11 -78 -8 -154 3 -98 8 -125 30 -172 36 -79 88 -132 200 -205 l98 -63 42
-88 c142 -295 483 -417 766 -274 124 63 204 148 272 288 34 71 37 75 145 145
84 56 118 86 147 128 52 74 78 162 78 264 0 142 -30 203 -123 249 l-57 28 0
92 c0 370 -292 676 -670 700 -41 3 -104 1 -138 -3z"/>
<path d="M2135 3016 c-86 -27 -190 -91 -262 -162 -59 -57 -81 -88 -120 -169
l-48 -99 -2 -136 c-3 -122 0 -143 23 -212 32 -97 95 -198 124 -198 30 0 35 25
12 57 -65 92 -122 257 -98 287 7 10 36 15 90 18 67 3 81 7 97 27 25 30 24 82
-1 123 -45 74 -15 148 59 148 32 0 44 -6 65 -31 32 -37 32 -41 1 -107 -32 -69
-32 -106 0 -137 22 -23 32 -25 110 -25 l85 0 0 -69 c0 -92 -14 -105 -78 -70
-107 56 -225 -3 -225 -113 0 -122 110 -183 223 -124 70 36 82 26 78 -63 -3
-64 -4 -66 -31 -69 -44 -5 -154 33 -229 78 -73 44 -93 48 -102 24 -19 -49 213
-164 331 -164 19 0 43 9 59 24 24 20 28 32 32 89 6 88 -10 134 -54 155 -33 15
-36 15 -89 -11 -74 -36 -106 -35 -140 5 -32 38 -29 81 11 116 32 28 53 28 114
-3 62 -31 91 -32 127 -1 26 23 28 31 32 110 l3 86 73 0 c85 0 97 -12 65 -67
-32 -55 -36 -105 -11 -156 29 -59 71 -82 141 -75 45 5 59 11 86 41 46 49 53
96 24 161 -39 88 -38 90 58 96 77 5 86 7 109 34 22 26 25 37 20 75 -17 137
-102 293 -208 381 -111 92 -307 162 -372 133 -14 -7 -29 -8 -38 -2 -20 12 -97
10 -144 -5z m133 -131 c2 -64 7 -84 23 -102 33 -34 64 -37 124 -8 67 31 99 32
130 0 37 -36 34 -86 -6 -119 -38 -32 -51 -32 -114 -1 -64 31 -99 32 -130 0
-23 -22 -25 -32 -25 -110 l0 -85 -75 0 c-90 0 -99 10 -66 76 55 114 -3 224
-119 224 -116 0 -174 -110 -119 -224 33 -66 23 -78 -58 -74 l-68 3 1 58 c3
120 122 298 250 373 67 40 172 74 214 71 l35 -2 3 -80z m194 65 c174 -54 328
-223 369 -405 17 -78 12 -85 -64 -85 -80 0 -121 -14 -136 -46 -16 -36 -14 -54
14 -106 39 -74 30 -119 -30 -144 -40 -16 -75 -7 -99 28 -22 31 -20 61 9 118
32 64 31 85 -4 121 -28 27 -34 29 -110 29 l-81 0 0 75 c0 92 9 99 86 60 43
-22 61 -26 91 -20 136 25 168 193 51 265 -45 27 -95 25 -153 -6 -66 -35 -75
-29 -75 54 0 38 3 72 7 75 12 12 60 7 125 -13z"/>
<path d="M1580 2223 c-32 -12 -50 -37 -50 -70 0 -26 4 -33 20 -33 13 0 24 10
30 25 11 28 44 34 54 9 3 -9 6 -50 6 -92 0 -71 -2 -78 -27 -98 -34 -27 -38
-90 -9 -123 26 -29 86 -29 86 -1 0 13 -10 24 -25 30 -33 12 -33 47 -1 60 18 6
26 19 31 50 10 62 -4 197 -24 220 -17 21 -66 33 -91 23z"/>
<path d="M2950 2217 c-40 -20 -50 -53 -50 -162 0 -105 3 -113 35 -131 28 -16
25 -36 -8 -52 -38 -18 -32 -46 10 -50 69 -7 101 88 48 138 -24 23 -26 29 -23
115 3 83 5 90 24 93 16 2 23 -4 28 -22 9 -36 56 -37 56 -2 0 38 -10 56 -41 71
-34 18 -47 18 -79 2z"/>
</g>
</svg>
