<?xml version="1.0" standalone="no"?>
<!DOCTYPE svg PUBLIC "-//W3C//DTD SVG 20010904//EN"
 "http://www.w3.org/TR/2001/REC-SVG-20010904/DTD/svg10.dtd">
<svg version="1.0" xmlns="http://www.w3.org/2000/svg"
 width="439.000000pt" height="440.000000pt" viewBox="0 0 439.000000 440.000000"
 preserveAspectRatio="xMidYMid meet">

<g transform="translate(0.000000,440.000000) scale(0.100000,-0.100000)"
fill="#FFFFFF" stroke="none">
<path d="M1610 2945 c-236 -50 -422 -191 -532 -400 -61 -118 -80 -193 -85
-346 -7 -172 9 -255 77 -395 82 -169 213 -291 413 -383 77 -35 87 -43 95 -74
6 -21 6 -53 1 -83 -12 -61 -4 -86 24 -82 26 4 35 32 36 119 1 53 -3 73 -22
100 -23 35 -34 42 -167 103 -179 83 -316 247 -382 456 -33 108 -33 302 0 410
42 132 87 206 192 310 147 148 281 208 485 217 168 8 331 -37 448 -122 44 -33
47 -38 47 -83 1 -77 30 -124 149 -240 l109 -107 12 -75 c37 -221 -49 -469
-217 -631 -80 -78 -156 -128 -247 -165 -68 -27 -111 -66 -122 -111 -4 -14 -3
-62 2 -107 15 -147 12 -197 -14 -234 -28 -38 -89 -72 -131 -72 -65 0 -132 46
-151 106 -18 53 -60 57 -60 5 0 -41 53 -117 99 -140 87 -45 195 -32 259 31 68
66 80 121 56 263 -16 99 -16 104 2 141 16 32 30 42 94 69 104 43 183 96 261
174 163 165 249 397 232 629 l-6 72 35 0 c43 0 89 33 181 128 71 74 82 104 39
110 -17 3 -43 -18 -110 -89 -71 -73 -94 -91 -117 -91 -42 0 -278 239 -294 298
-14 52 -1 98 41 141 60 62 135 67 203 13 21 -17 43 -30 50 -30 7 0 29 13 50
30 50 39 94 47 151 25 78 -30 110 -101 92 -210 -4 -26 31 -33 49 -9 18 25 17
128 -3 167 -41 80 -103 117 -196 117 -47 0 -73 -6 -103 -23 l-40 -23 -40 23
c-82 47 -208 25 -268 -47 l-26 -30 -62 40 c-63 41 -133 70 -229 97 -77 21
-279 26 -360 8z"/>
<path d="M1640 2765 c-169 -38 -337 -170 -412 -325 -89 -183 -88 -374 3 -559
101 -206 309 -331 548 -331 112 0 195 21 293 72 195 101 318 304 321 528 1
118 -14 182 -66 290 -71 145 -200 257 -356 310 -85 28 -241 35 -331 15z m335
-79 c102 -39 105 -43 105 -146 l0 -87 -31 -7 c-51 -10 -192 -7 -250 5 -89 19
-114 17 -117 -8 -3 -19 5 -24 55 -40 46 -14 85 -16 193 -14 74 2 156 4 182 5
57 1 97 -25 116 -76 26 -68 -25 -167 -106 -206 -31 -15 -38 -26 -57 -87 -12
-38 -32 -90 -45 -115 -35 -69 -144 -172 -217 -206 -59 -26 -63 -30 -63 -61 0
-31 -2 -33 -37 -33 -53 1 -160 40 -226 84 -124 82 -221 225 -248 364 -16 82
-7 199 22 286 24 74 104 195 152 230 l27 20 53 -51 c70 -68 94 -80 116 -58 15
15 12 20 -40 68 -90 84 -90 83 -28 112 97 44 156 55 269 51 84 -3 119 -9 175
-30z m221 -153 c58 -62 110 -168 130 -263 48 -226 -65 -472 -270 -591 -95 -55
-261 -93 -261 -59 0 8 20 25 45 38 143 75 242 199 280 349 9 35 18 47 48 62
75 39 121 119 122 211 0 91 -44 145 -142 174 -15 4 -18 17 -18 66 0 37 4 60
11 60 6 0 31 -21 55 -47z"/>
<path d="M2110 2278 c-24 -52 -25 -72 -5 -88 18 -15 45 2 45 29 0 10 7 26 15
37 8 10 15 29 15 42 0 17 -6 22 -25 22 -21 0 -30 -9 -45 -42z"/>
<path d="M1234 2235 c-4 -8 0 -22 7 -31 56 -68 239 -54 247 19 3 23 0 27 -21
27 -14 0 -30 -7 -37 -15 -22 -26 -76 -29 -120 -6 -48 25 -69 26 -76 6z"/>
<path d="M1700 2232 c0 -10 12 -29 26 -43 22 -21 35 -24 99 -24 59 0 79 4 102
21 61 46 29 81 -41 45 -53 -26 -72 -26 -114 -1 -41 25 -72 26 -72 2z"/>
<path d="M1513 1934 c-32 -16 -50 -45 -38 -64 9 -15 26 -12 70 10 22 11 45 20
53 20 7 0 30 -9 52 -20 52 -27 70 -26 70 4 0 56 -131 87 -207 50z"/>
</g>
</svg>
