<?xml version="1.0" standalone="no"?>
<!DOCTYPE svg PUBLIC "-//W3C//DTD SVG 20010904//EN"
 "http://www.w3.org/TR/2001/REC-SVG-20010904/DTD/svg10.dtd">
<svg version="1.0" xmlns="http://www.w3.org/2000/svg"
 width="440.000000pt" height="439.000000pt" viewBox="0 0 440.000000 439.000000"
 preserveAspectRatio="xMidYMid meet">

<g transform="translate(0.000000,439.000000) scale(0.100000,-0.100000)"
fill="#FFFFFF" stroke="none">
<path d="M2190 3321 c-70 -7 -112 -25 -148 -63 -32 -35 -42 -79 -42 -190 l0
-98 -290 0 -290 0 0 -235 0 -235 159 0 c201 0 191 9 191 -177 0 -181 8 -173
-195 -173 l-155 0 0 -230 0 -230 290 0 290 0 0 -105 c0 -144 22 -195 102 -236
32 -16 60 -19 193 -19 133 0 161 3 193 19 80 41 102 92 102 236 l0 105 290 0
290 0 0 230 0 230 -155 0 c-204 0 -195 -8 -195 178 0 182 -11 172 193 172
l157 0 0 235 0 235 -290 0 -290 0 0 98 c0 53 -5 114 -10 134 -11 37 -64 92
-104 107 -31 12 -211 20 -286 12z m260 -131 c18 -18 20 -33 20 -175 l0 -155
293 -2 292 -3 3 -117 3 -118 -108 0 c-124 0 -173 -17 -211 -74 -31 -46 -46
-155 -38 -279 7 -112 26 -161 79 -201 30 -23 42 -26 153 -28 l119 -3 3 -117 3
-118 -296 0 -295 0 0 -159 0 -160 -27 -21 c-26 -21 -36 -22 -156 -17 -175 7
-167 -3 -167 199 l0 158 -295 0 -296 0 3 118 3 117 127 5 c118 5 128 7 153 30
43 40 62 89 70 177 11 129 -2 245 -34 293 -40 63 -86 80 -214 80 l-108 0 3
118 3 117 293 3 292 2 0 160 c0 200 -9 190 177 190 120 0 135 -2 153 -20z"/>
<path d="M2083 2559 c-51 -32 -76 -82 -76 -148 0 -31 6 -67 13 -81 17 -33 261
-280 276 -280 7 0 71 62 143 137 140 147 159 180 146 252 -16 87 -84 141 -176
141 -35 0 -65 -7 -84 -18 -29 -18 -31 -18 -60 0 -43 26 -139 24 -182 -3z m156
-134 c26 -25 52 -45 56 -45 4 0 30 20 56 45 54 50 70 54 99 25 36 -36 26 -59
-67 -148 l-86 -83 -89 88 c-48 48 -88 96 -88 105 0 22 34 58 55 58 9 0 38 -20
64 -45z"/>
</g>
</svg>
