<?xml version="1.0" standalone="no"?>
<!DOCTYPE svg PUBLIC "-//W3C//DTD SVG 20010904//EN"
 "http://www.w3.org/TR/2001/REC-SVG-20010904/DTD/svg10.dtd">
<svg version="1.0" xmlns="http://www.w3.org/2000/svg"
 width="439.000000pt" height="439.000000pt" viewBox="0 0 439.000000 439.000000"
 preserveAspectRatio="xMidYMid meet">

<g transform="translate(0.000000,439.000000) scale(0.100000,-0.100000)"
fill="#FFFFFF" stroke="none">
<path d="M1404 3026 c-17 -8 -40 -26 -52 -41 l-22 -28 0 -729 c0 -800 -2 -771
60 -803 24 -13 90 -15 427 -15 430 1 427 0 464 56 18 28 19 54 19 754 0 556
-3 731 -13 749 -6 13 -25 34 -40 45 -28 20 -40 21 -420 23 -313 2 -398 0 -423
-11z m828 -55 l33 -29 3 -694 c2 -485 0 -704 -8 -731 -7 -25 -22 -45 -43 -57
-30 -19 -53 -20 -402 -20 -352 0 -372 1 -403 20 -18 11 -37 32 -42 46 -7 17
-9 281 -8 731 l3 705 33 29 32 29 385 0 385 0 32 -29z"/>
<path d="M1437 2933 c-4 -3 -7 -307 -7 -675 l0 -668 383 2 382 3 0 670 0 670
-376 3 c-206 1 -378 -1 -382 -5z m733 -668 l0 -635 -355 0 -355 0 0 635 0 635
355 0 355 0 0 -635z"/>
<path d="M1743 2541 c-74 -34 -107 -146 -64 -217 l18 -30 -54 -28 c-60 -32
-86 -62 -102 -121 -15 -53 -14 -148 1 -163 9 -9 84 -12 274 -12 222 0 263 2
274 15 9 11 11 38 7 97 -8 102 -32 143 -110 183 l-54 29 18 30 c43 71 10 179
-66 216 -51 25 -88 25 -142 1z m122 -37 c20 -9 40 -30 50 -51 56 -118 -91
-226 -180 -133 -54 56 -39 156 28 185 42 19 62 18 102 -1z m-82 -255 c27 -7
48 -7 69 0 47 17 105 -3 155 -54 43 -42 43 -43 43 -114 l0 -71 -237 2 -238 3
1 68 c1 65 2 69 39 107 21 22 57 46 79 54 52 18 44 18 89 5z"/>
<path d="M1735 1530 c-13 -22 10 -30 85 -30 77 0 108 12 79 31 -19 12 -156 11
-164 -1z"/>
<path d="M2486 3018 c-10 -14 -16 -44 -16 -84 l0 -61 -50 -23 c-62 -29 -62
-47 3 -78 l47 -22 0 -55 c0 -29 4 -65 10 -79 l10 -26 258 0 c187 0 261 3 270
12 9 9 12 69 12 208 0 178 -2 198 -18 213 -16 15 -50 17 -265 17 -243 0 -246
0 -261 -22z m320 -78 c104 0 114 -2 114 -18 0 -17 -13 -20 -138 -26 -157 -7
-205 -2 -200 23 3 16 67 32 96 25 8 -2 65 -4 128 -4z m112 -127 c-5 -25 -50
-30 -203 -23 -113 4 -130 7 -133 23 -3 16 10 17 168 17 157 0 171 -1 168 -17z
m0 -110 c-3 -16 -19 -18 -168 -18 -149 0 -165 2 -168 18 -3 16 10 17 168 17
158 0 171 -1 168 -17z"/>
<path d="M2489 2434 c-7 -9 -13 -43 -13 -82 l-1 -67 -52 -24 c-29 -14 -53 -31
-53 -38 0 -8 25 -25 55 -39 l55 -25 -2 -65 c-1 -45 3 -69 13 -79 19 -19 501
-27 519 -8 8 7 14 76 17 202 4 165 2 195 -11 216 l-16 25 -249 0 c-213 0 -250
-2 -262 -16z m496 -214 l0 -185 -235 0 -235 0 -3 76 -3 76 -37 17 -37 18 38
19 37 19 0 69 c0 37 3 71 7 75 4 3 110 5 237 4 l231 -3 0 -185z"/>
<path d="M2650 2312 c-11 -13 -20 -31 -20 -39 0 -47 85 -163 120 -163 21 0 96
79 110 116 15 39 12 72 -9 93 -15 15 -34 18 -100 18 -75 0 -83 -2 -101 -25z
m83 -34 l15 -23 26 24 c25 23 27 24 43 8 16 -16 16 -19 -1 -52 -10 -18 -29
-44 -42 -56 -28 -26 -42 -19 -81 48 -20 35 -23 46 -13 58 18 21 35 19 53 -7z"/>
<path d="M2486 1838 c-10 -14 -16 -44 -16 -83 l0 -61 -50 -21 c-30 -13 -50
-28 -50 -37 0 -9 22 -27 50 -41 l50 -25 0 -55 c0 -73 15 -103 56 -111 18 -3
133 -3 256 0 192 6 225 9 236 23 8 12 12 71 12 209 0 162 -3 195 -16 208 -13
14 -51 16 -264 16 -246 0 -249 0 -264 -22z m504 -203 l0 -185 -237 2 -238 3
-1 55 c-1 30 -2 63 -3 73 0 9 -17 25 -36 34 l-36 17 36 18 c35 18 35 19 35 87
0 37 3 71 7 74 3 4 111 7 240 7 l233 0 0 -185z"/>
<path d="M2720 1736 c-19 -41 -22 -44 -70 -50 -60 -8 -63 -21 -16 -64 32 -29
34 -33 25 -69 -16 -72 -7 -79 56 -42 l36 22 39 -22 c58 -32 63 -29 56 32 -6
49 -5 54 24 82 42 40 38 53 -19 61 -45 6 -50 9 -69 50 -12 24 -27 44 -32 44
-6 0 -20 -20 -30 -44z"/>
</g>
</svg>
