<?xml version="1.0" standalone="no"?>
<!DOCTYPE svg PUBLIC "-//W3C//DTD SVG 20010904//EN"
 "http://www.w3.org/TR/2001/REC-SVG-20010904/DTD/svg10.dtd">
<svg version="1.0" xmlns="http://www.w3.org/2000/svg"
 width="440.000000pt" height="440.000000pt" viewBox="0 0 440.000000 440.000000"
 preserveAspectRatio="xMidYMid meet">

<g transform="translate(0.000000,440.000000) scale(0.100000,-0.100000)"
fill="#FFFFFF" stroke="none">
<path d="M2216 3264 c-10 -27 -7 -89 6 -102 33 -33 63 8 53 74 -5 38 -10 44
-30 44 -12 0 -26 -7 -29 -16z"/>
<path d="M2044 3175 c-8 -19 18 -59 51 -81 20 -13 28 -14 40 -4 22 18 19 33
-18 68 -36 34 -64 41 -73 17z"/>
<path d="M2371 3161 c-34 -31 -40 -65 -15 -75 33 -13 100 49 89 83 -9 29 -37
26 -74 -8z"/>
<path d="M1615 2930 c-128 -41 -234 -150 -272 -278 -21 -74 -21 -194 2 -261
22 -66 85 -159 130 -191 19 -14 35 -28 35 -32 0 -4 -55 -9 -122 -10 l-123 -3
-9 -58 c-5 -32 -5 -87 0 -125 l9 -67 155 0 155 0 3 27 3 27 -128 3 -128 3 -3
68 -3 67 926 0 926 0 -3 -67 -3 -68 -753 -3 c-660 -2 -753 -4 -758 -17 -4 -8
-1 -22 6 -30 11 -13 110 -15 789 -13 l776 3 0 125 0 125 -122 3 c-68 1 -123 5
-123 7 0 2 22 25 50 51 97 91 134 187 128 333 -3 85 -8 106 -35 162 -40 80
-96 138 -120 123 -28 -17 -25 -29 13 -75 156 -186 94 -454 -131 -565 -52 -25
-71 -29 -145 -29 -115 0 -186 32 -269 121 -72 76 -96 138 -94 239 1 98 31 171
100 245 99 107 218 142 361 105 93 -24 127 -10 83 34 -27 27 -121 44 -216 39
-150 -8 -277 -93 -344 -231 -87 -175 -53 -370 86 -503 l57 -54 -257 0 c-165 0
-257 4 -257 10 0 6 4 10 8 10 20 0 106 100 133 155 104 212 16 472 -198 577
-59 29 -77 33 -162 35 -74 2 -110 -2 -156 -17z m283 -75 c81 -36 161 -121 192
-202 112 -297 -200 -590 -487 -458 -71 32 -147 106 -180 174 -25 50 -28 67
-28 156 0 89 3 106 28 157 40 81 130 162 210 188 86 28 181 23 265 -15z"/>
<path d="M1520 2661 c-25 -24 -31 -38 -28 -63 2 -28 7 -33 28 -33 18 0 26 6
28 23 7 48 65 46 74 -3 2 -14 11 -20 28 -20 21 0 26 5 28 31 4 45 -31 84 -85
91 -37 5 -45 2 -73 -26z"/>
<path d="M1850 2661 c-25 -24 -31 -38 -28 -63 2 -28 7 -33 28 -33 18 0 26 6
28 22 7 51 53 52 71 1 8 -23 16 -29 33 -26 18 2 24 10 26 34 4 45 -31 84 -85
91 -37 5 -45 2 -73 -26z"/>
<path d="M1597 2453 c-29 -28 20 -91 89 -113 79 -26 205 17 220 74 13 53 -19
60 -69 16 -47 -41 -84 -47 -141 -22 -25 12 -49 28 -52 36 -6 16 -35 22 -47 9z"/>
<path d="M2487 2683 c-17 -17 -6 -66 22 -94 41 -40 91 -40 132 1 38 38 39 93
1 98 -17 3 -25 -3 -33 -26 -18 -52 -60 -50 -73 3 -6 24 -34 34 -49 18z"/>
<path d="M2817 2683 c-17 -17 -6 -66 22 -94 41 -40 91 -40 132 1 38 38 39 93
1 98 -17 3 -25 -3 -33 -26 -18 -52 -60 -50 -73 3 -6 24 -34 34 -49 18z"/>
<path d="M2655 2436 c-59 -27 -78 -47 -73 -78 4 -32 30 -33 66 -3 61 51 134
51 182 0 42 -45 88 -22 60 31 -17 31 -104 74 -149 74 -20 0 -58 -11 -86 -24z"/>
<path d="M2029 1813 c-6 -10 -38 -83 -73 -163 l-62 -145 -84 -5 -85 -5 0 -90
0 -90 355 0 355 0 0 25 0 25 -327 3 -328 2 0 35 0 35 465 0 465 0 0 -35 0 -34
-97 -3 c-97 -3 -98 -3 -98 -28 l0 -25 125 0 125 0 0 90 0 90 -85 5 -85 5 -65
150 c-36 83 -69 156 -73 163 -11 16 -46 15 -53 -2 -3 -8 22 -78 55 -156 34
-78 61 -146 61 -151 0 -5 -118 -9 -275 -9 -157 0 -275 4 -275 9 0 5 27 72 60
149 33 78 57 148 54 156 -8 21 -41 20 -55 -1z"/>
</g>
</svg>
