<?xml version="1.0" standalone="no"?>
<!DOCTYPE svg PUBLIC "-//W3C//DTD SVG 20010904//EN"
 "http://www.w3.org/TR/2001/REC-SVG-20010904/DTD/svg10.dtd">
<svg version="1.0" xmlns="http://www.w3.org/2000/svg"
 width="440.000000pt" height="440.000000pt" viewBox="0 0 440.000000 440.000000"
 preserveAspectRatio="xMidYMid meet">

<g transform="translate(0.000000,440.000000) scale(0.100000,-0.100000)"
fill="#FFFFFF" stroke="none">
<path d="M2027 3051 c-181 -40 -405 -178 -372 -231 10 -17 41 -11 61 11 54 61
190 131 305 159 225 53 483 26 698 -76 191 -89 308 -215 364 -389 32 -101 32
-318 0 -420 -33 -102 -87 -188 -179 -279 -45 -45 -86 -90 -91 -101 -31 -61
-21 -180 27 -320 40 -120 43 -118 -151 -170 -57 -15 -74 -31 -59 -55 7 -11 26
-10 106 9 109 25 146 41 168 73 23 32 20 71 -14 178 -64 197 -58 229 58 348
98 100 141 166 179 274 22 61 27 95 31 214 6 177 -7 254 -59 361 -92 191 -282
328 -558 400 -135 35 -384 42 -514 14z"/>
<path d="M2239 2927 c-19 -7 -46 -21 -58 -29 -17 -12 -30 -14 -54 -7 -79 23
-159 -2 -215 -65 -17 -20 -32 -41 -32 -46 0 -4 -13 -11 -29 -15 -93 -20 -163
-124 -161 -237 1 -35 -5 -81 -14 -103 -46 -122 18 -236 157 -279 15 -5 17 -17
15 -101 -3 -112 5 -125 79 -125 54 0 69 21 78 110 10 104 9 102 58 80 23 -11
57 -20 75 -20 28 0 32 -3 32 -28 0 -16 9 -37 19 -46 24 -22 96 -33 114 -18 9
8 26 8 57 1 24 -6 55 -7 67 -4 31 7 30 -7 -7 -100 -16 -42 -30 -89 -30 -105 0
-40 42 -72 89 -68 35 3 38 7 98 118 l63 115 69 6 c58 4 79 11 119 39 91 62
137 170 113 265 -10 40 -9 50 3 64 26 29 56 105 56 145 0 21 -6 57 -12 80 -14
45 -75 112 -111 121 -15 4 -30 22 -43 48 -13 28 -26 43 -42 45 -33 5 -35 -18
-8 -80 21 -46 31 -58 60 -68 101 -33 127 -165 49 -251 l-36 -39 18 -56 c14
-46 15 -62 5 -102 -15 -60 -50 -107 -100 -132 -39 -20 -100 -27 -100 -12 0 4
25 51 55 104 88 153 87 195 -1 234 -67 29 -108 31 -131 4 -10 -11 -41 -84 -69
-163 l-52 -142 -38 -7 c-47 -8 -104 0 -104 16 0 6 12 46 26 89 28 85 26 110
-8 105 -20 -3 -28 -19 -57 -110 -21 -65 -40 -108 -48 -108 -7 0 -13 8 -13 18
0 28 88 541 94 551 6 10 85 -4 99 -18 4 -5 -9 -59 -29 -120 -35 -106 -36 -113
-20 -129 16 -16 18 -16 37 6 20 25 65 156 75 220 8 52 -16 79 -90 98 -68 18
-100 13 -120 -19 -11 -17 -96 -457 -96 -498 0 -27 -122 2 -149 35 -8 9 -5 60
9 167 26 203 26 213 -6 238 -21 17 -41 21 -95 21 -61 0 -69 -2 -89 -27 -19
-25 -21 -38 -20 -202 l1 -176 -22 3 c-46 5 -99 78 -99 135 0 12 9 41 20 62 17
32 19 51 14 96 -4 34 -2 71 5 92 15 46 69 93 121 107 31 8 44 19 59 49 36 70
113 97 186 67 37 -16 39 -16 74 8 20 14 49 30 64 35 74 28 169 -2 214 -68 30
-43 52 -49 93 -26 14 8 49 14 78 15 37 0 54 4 58 15 16 40 -55 58 -134 35 -31
-8 -37 -6 -66 24 -18 18 -50 41 -72 51 -49 24 -147 30 -195 12z m-232 -383 c5
-15 -63 -554 -72 -562 -2 -3 -11 -2 -20 1 -13 6 -15 44 -15 292 l0 285 50 0
c37 0 52 -4 57 -16z m693 -230 c22 -9 40 -21 40 -27 0 -6 -59 -122 -131 -258
-97 -183 -135 -246 -146 -242 -8 3 -12 11 -10 17 72 206 193 526 199 526 4 0
26 -7 48 -16z"/>
<path d="M1566 2728 c-28 -44 -44 -94 -56 -178 -7 -47 -21 -107 -31 -135 -24
-64 -24 -106 1 -147 34 -56 27 -72 -65 -163 -73 -72 -85 -88 -85 -117 0 -43
22 -73 71 -98 21 -11 39 -24 39 -29 0 -4 -13 -20 -30 -34 -36 -33 -38 -66 -6
-96 20 -19 23 -28 15 -48 -13 -34 -1 -73 26 -83 21 -8 22 -13 17 -78 -4 -59
-1 -76 16 -104 48 -77 151 -101 321 -75 167 26 227 -7 305 -164 33 -67 48 -88
78 -104 l37 -20 153 39 c165 42 190 54 168 81 -16 20 -41 16 -187 -27 -145
-42 -149 -41 -199 60 -47 95 -98 152 -163 183 -42 20 -54 21 -141 13 -52 -4
-135 -8 -183 -9 l-89 0 -35 38 c-31 34 -34 43 -29 75 20 114 20 110 -13 129
-35 20 -37 26 -16 43 22 18 19 33 -15 65 l-29 28 30 35 c22 25 29 42 27 65 -3
27 -11 36 -53 57 -75 37 -73 60 10 134 66 58 105 117 105 157 0 11 -12 43 -27
69 l-27 47 21 49 c12 27 26 85 33 129 6 44 23 107 36 141 13 33 24 68 24 77 0
25 -37 21 -54 -5z"/>
<path d="M2133 1915 c-57 -24 -80 -104 -48 -165 21 -40 53 -60 98 -60 76 0
116 40 117 115 0 60 -19 91 -66 111 -41 17 -60 17 -101 -1z m93 -70 c18 -19
23 -31 19 -48 -9 -27 -33 -47 -59 -47 -52 0 -76 75 -34 104 31 22 45 20 74 -9z"/>
<path d="M1843 1830 c-18 -10 -39 -33 -48 -49 -53 -104 60 -210 165 -156 80
41 77 171 -5 209 -44 21 -73 20 -112 -4z m97 -60 c39 -39 14 -100 -41 -100
-36 0 -63 37 -53 74 11 47 60 60 94 26z"/>
<path d="M2280 1643 c-51 -47 -54 -127 -5 -175 49 -49 140 -42 179 13 33 47
13 154 -33 179 -11 5 -40 10 -65 10 -36 0 -52 -6 -76 -27z m118 -45 c31 -40
15 -88 -35 -103 -47 -13 -83 63 -47 99 19 19 68 21 82 4z"/>
</g>
</svg>
