<?xml version="1.0" standalone="no"?>
<!DOCTYPE svg PUBLIC "-//W3C//DTD SVG 20010904//EN"
 "http://www.w3.org/TR/2001/REC-SVG-20010904/DTD/svg10.dtd">
<svg version="1.0" xmlns="http://www.w3.org/2000/svg"
 width="439.000000pt" height="439.000000pt" viewBox="0 0 439.000000 439.000000"
 preserveAspectRatio="xMidYMid meet">

<g transform="translate(0.000000,439.000000) scale(0.100000,-0.100000)"
fill="#FFFFFF" stroke="none">
<path d="M1253 3452 c-65 -23 -115 -61 -151 -115 -44 -66 -52 -93 -52 -171 0
-114 45 -216 96 -216 31 0 31 20 0 68 -69 108 -57 230 32 320 107 106 271 100
372 -15 85 -97 80 -244 -13 -341 -66 -69 -146 -90 -264 -67 -42 7 -43 7 -43
-18 0 -22 7 -28 38 -36 86 -25 196 -8 263 40 17 12 31 20 33 18 1 -2 13 -19
26 -37 l23 -34 -21 -41 c-49 -99 -53 -217 -11 -305 19 -39 20 -45 7 -59 -14
-13 -21 -12 -69 14 -48 24 -65 28 -144 28 -75 0 -98 -4 -139 -24 -61 -30 -109
-78 -143 -144 -24 -45 -28 -64 -28 -137 0 -73 4 -92 27 -136 35 -67 115 -138
180 -160 75 -25 179 -16 247 22 95 51 161 150 161 242 0 29 3 52 8 52 4 0 23
-24 42 -53 19 -28 54 -73 78 -99 39 -42 43 -51 40 -90 -2 -35 -8 -45 -29 -55
-22 -11 -32 -10 -56 2 -25 13 -40 13 -84 4 -59 -13 -136 -48 -186 -87 -46 -34
-89 -130 -106 -236 -17 -99 -14 -118 16 -114 18 3 24 18 41 108 25 127 58 189
119 224 47 27 152 60 165 52 5 -3 12 -33 16 -68 6 -59 19 -82 41 -74 6 1 10
29 10 61 0 50 3 59 22 66 17 6 22 3 27 -15 9 -35 44 -75 84 -95 118 -60 264
-24 313 75 15 33 24 41 39 37 34 -9 23 -97 -32 -261 -32 -95 -30 -123 7 -109
31 13 77 159 102 327 8 50 10 55 33 53 53 -3 144 -46 185 -87 43 -44 58 -83
86 -229 11 -58 30 -80 51 -59 10 10 0 109 -18 173 -4 14 7 17 63 21 144 11
254 106 284 248 14 67 6 102 -24 98 -19 -3 -23 -11 -29 -62 -17 -136 -119
-229 -252 -229 -48 0 -62 3 -70 18 -25 43 -83 98 -127 120 -37 19 -48 31 -53
56 -25 125 37 245 152 295 20 9 64 17 97 17 77 0 142 -30 195 -90 24 -28 46
-43 57 -41 31 6 26 36 -15 79 l-39 42 31 56 c28 50 31 65 31 141 0 70 -4 94
-24 134 -32 66 -91 122 -158 153 -47 22 -65 24 -136 21 -53 -2 -96 -10 -120
-22 -21 -10 -39 -17 -40 -15 -2 2 -8 27 -15 54 -24 96 -100 196 -137 181 -23
-9 -18 -27 24 -84 69 -91 94 -219 59 -302 l-15 -35 -15 30 c-42 79 -105 111
-248 124 -112 11 -183 38 -240 91 -29 27 -31 33 -28 87 l3 58 68 34 c71 36 91
39 271 28 77 -4 48 47 -32 58 l-49 7 -6 57 c-10 114 -72 205 -174 256 -50 25
-70 29 -138 29 -80 0 -114 -10 -178 -51 -27 -17 -29 -17 -39 1 -24 42 -85 99
-131 123 -68 34 -172 41 -244 15z m692 -161 c92 -42 155 -132 155 -223 0 -44
-2 -48 -23 -48 -40 0 -120 -28 -170 -60 -39 -24 -59 -30 -105 -30 -35 0 -74
-8 -101 -20 -49 -23 -55 -21 -77 22 -15 29 -14 33 12 92 21 46 28 79 30 134 2
83 14 103 79 133 53 24 147 24 200 0z m-117 -420 c7 -4 16 -32 19 -62 8 -76
-21 -135 -94 -190 -38 -28 -61 -56 -75 -87 l-20 -45 -22 34 c-17 28 -21 49
-21 124 0 77 3 96 24 133 42 72 144 122 189 93z m170 -232 c27 -13 83 -24 145
-30 120 -12 181 -37 215 -89 21 -32 23 -44 20 -135 -4 -126 -30 -188 -119
-280 -145 -151 -270 -154 -415 -10 -84 84 -124 168 -131 271 -8 118 5 154 77
209 35 27 69 64 81 86 l20 40 32 -21 c18 -12 51 -30 75 -41z m797 15 c125 -59
182 -215 125 -337 -12 -26 -26 -50 -31 -52 -4 -3 -31 2 -59 11 -76 25 -173 15
-243 -24 -49 -28 -56 -29 -70 -15 -14 14 -13 18 4 47 12 19 19 49 19 79 0 41
-5 53 -30 78 -29 29 -29 31 -15 60 9 16 18 49 21 74 7 48 24 64 92 91 47 18
137 12 187 -12z m-1353 -230 c69 -20 103 -48 116 -98 6 -20 24 -52 41 -72 36
-40 40 -85 16 -153 -21 -60 -51 -99 -103 -132 -111 -71 -227 -58 -317 34 -71
74 -93 161 -63 260 18 61 92 135 158 157 68 24 79 24 152 4z m220 -71 c2 -38
2 -70 0 -73 -8 -12 -52 53 -52 77 0 25 25 63 41 63 4 0 9 -30 11 -67z m824 22
c6 -26 -21 -85 -44 -93 -13 -4 -17 52 -6 106 5 27 9 30 25 21 10 -5 22 -21 25
-34z m-20 -176 l22 -21 -24 -46 c-29 -57 -46 -144 -38 -190 l7 -35 -40 6 c-27
5 -46 2 -60 -8 -16 -11 -28 -12 -51 -4 -26 9 -30 16 -35 57 -5 46 -4 47 59
114 35 37 71 82 80 100 27 53 45 60 80 27z m-442 -266 c36 -4 68 1 108 14 l56
19 6 -29 c22 -111 -33 -177 -149 -177 -101 0 -151 46 -147 138 1 30 5 58 8 63
3 5 19 2 36 -7 16 -9 53 -18 82 -21z"/>
<path d="M1827 3244 c-4 -4 -7 -60 -7 -124 0 -92 3 -120 15 -130 12 -10 18
-10 30 0 13 11 15 35 13 134 -3 113 -4 121 -23 124 -12 2 -24 0 -28 -4z"/>
<path d="M1852 2408 c-18 -18 -15 -35 10 -52 l21 -15 -23 -19 c-28 -23 -21
-52 12 -52 29 1 102 50 106 72 2 11 -14 27 -50 47 -61 35 -60 35 -76 19z"/>
<path d="M2163 2389 c-29 -17 -53 -37 -53 -45 0 -17 86 -74 112 -74 30 0 34
31 9 52 l-23 18 23 19 c19 16 22 23 13 37 -16 27 -25 26 -81 -7z"/>
<path d="M1993 2254 c-9 -23 4 -43 32 -50 38 -9 75 10 75 40 0 22 -4 24 -51
24 -34 0 -52 -5 -56 -14z"/>
<path d="M1992 2113 c3 -26 7 -28 49 -31 50 -3 74 13 63 42 -5 12 -20 16 -61
16 -53 0 -54 0 -51 -27z"/>
<path d="M2639 2605 c-49 -27 -65 -107 -22 -113 17 -3 26 5 37 32 17 41 49 49
66 17 14 -27 3 -48 -31 -60 -29 -10 -30 -12 -27 -68 3 -54 5 -58 28 -58 22 0
25 5 28 37 2 26 9 39 23 43 29 9 52 61 45 101 -8 40 -57 84 -94 84 -15 -1 -39
-7 -53 -15z"/>
<path d="M1357 2373 c-9 -14 -19 -220 -12 -242 4 -13 15 -21 29 -21 22 0 23 4
29 103 4 56 3 116 -1 132 -8 29 -35 45 -45 28z"/>
<path d="M1351 2031 c-8 -15 -7 -23 4 -35 22 -22 47 -9 43 23 -4 32 -33 40
-47 12z"/>
<path d="M1324 3350 c-58 -23 -84 -111 -36 -118 17 -3 25 3 33 26 13 38 32 46
60 23 18 -14 20 -21 11 -38 -6 -11 -23 -24 -37 -27 -23 -6 -25 -11 -25 -59 0
-29 5 -58 12 -65 18 -18 48 4 48 36 0 18 10 37 29 53 17 15 33 38 36 52 9 35
-21 94 -56 112 -31 17 -44 18 -75 5z"/>
<path d="M1342 3018 c-17 -17 -15 -45 4 -52 19 -7 44 10 44 30 0 20 -34 36
-48 22z"/>
<path d="M2592 1983 c2 -20 9 -28 23 -28 14 0 21 8 23 28 3 23 0 27 -23 27
-23 0 -26 -4 -23 -27z"/>
<path d="M2706 1994 c-9 -22 17 -49 39 -40 10 3 15 15 13 28 -4 29 -42 37 -52
12z"/>
<path d="M2824 1995 c-4 -9 0 -23 9 -32 21 -21 49 -9 45 19 -4 28 -45 38 -54
13z"/>
<path d="M1790 1625 c-20 -24 27 -149 58 -153 13 -2 24 3 28 12 8 22 -34 143
-52 150 -21 8 -20 8 -34 -9z"/>
</g>
</svg>
