<?xml version="1.0" standalone="no"?>
<!DOCTYPE svg PUBLIC "-//W3C//DTD SVG 20010904//EN"
 "http://www.w3.org/TR/2001/REC-SVG-20010904/DTD/svg10.dtd">
<svg version="1.0" xmlns="http://www.w3.org/2000/svg"
 width="439.000000pt" height="439.000000pt" viewBox="0 0 439.000000 439.000000"
 preserveAspectRatio="xMidYMid meet">

<g transform="translate(0.000000,439.000000) scale(0.100000,-0.100000)"
fill="#FFFFFF" stroke="none">
<path d="M2117 3238 c-22 -23 -22 -26 -21 -338 0 -285 2 -322 21 -393 l20 -77
-64 -20 c-224 -69 -471 -36 -661 89 -85 56 -112 61 -142 31 -19 -19 -20 -33
-20 -270 0 -284 11 -405 46 -527 29 -99 61 -166 119 -248 110 -155 244 -229
415 -229 103 0 173 20 260 72 175 105 320 391 320 633 0 38 2 69 4 69 2 0 29
-11 60 -25 328 -145 664 81 758 510 17 74 21 141 25 387 5 264 3 301 -11 323
-29 45 -59 43 -138 -11 -89 -59 -190 -99 -303 -119 -110 -19 -150 -19 -260 0
-110 19 -214 61 -302 120 -77 51 -95 54 -126 23z m98 -84 c267 -170 627 -175
898 -12 44 26 82 48 84 48 1 0 3 -116 3 -259 0 -289 -10 -375 -60 -514 -112
-308 -355 -456 -607 -367 -29 10 -65 28 -81 39 l-29 20 -6 202 c-6 168 -10
205 -23 221 -25 27 -53 22 -119 -22 -69 -46 -83 -49 -90 -17 -3 12 -10 42 -16
67 -12 46 -26 630 -15 630 3 0 31 -16 61 -36z m-819 -719 c151 -87 258 -115
439 -115 86 0 144 6 204 20 82 20 213 76 279 121 l34 22 -4 -319 c-4 -318 -4
-319 -32 -404 -93 -281 -264 -440 -476 -444 -232 -3 -415 176 -502 492 -19 69
-22 110 -26 375 -2 163 -2 297 1 297 2 0 39 -20 83 -45z"/>
<path d="M2351 2804 l-22 -16 23 -25 c63 -69 181 -71 251 -5 33 31 33 36 5 49
-18 8 -29 6 -53 -11 -42 -30 -115 -29 -147 2 -29 26 -28 26 -57 6z"/>
<path d="M2772 2802 l-23 -18 28 -26 c68 -65 178 -65 246 0 33 31 33 36 5 49
-18 8 -29 6 -53 -11 -41 -29 -104 -28 -144 2 -36 26 -31 26 -59 4z"/>
<path d="M2595 2461 c-51 -23 -91 -70 -105 -122 -21 -77 -28 -74 185 -74 213
0 206 -3 185 74 -21 80 -101 141 -185 141 -22 0 -58 -9 -80 -19z m129 -55 c31
-13 76 -59 76 -77 0 -5 -56 -9 -125 -9 -69 0 -125 4 -125 9 0 18 44 64 74 77
40 17 59 17 100 0z"/>
<path d="M1555 2108 c-27 -15 -65 -50 -65 -60 0 -5 11 -13 24 -19 20 -10 29
-8 52 10 35 28 98 28 143 0 28 -17 39 -19 59 -10 22 11 23 13 10 33 -25 37
-77 58 -143 58 -33 0 -69 -6 -80 -12z"/>
<path d="M1980 2109 c-28 -11 -70 -48 -70 -61 0 -5 11 -14 25 -20 21 -9 28 -8
46 8 16 14 36 19 79 19 43 0 63 -5 79 -19 18 -16 25 -17 46 -8 22 10 24 15 15
32 -21 38 -70 60 -135 59 -33 0 -71 -5 -85 -10z"/>
<path d="M1647 1723 c-25 -24 13 -125 62 -166 113 -95 279 -34 315 115 13 57
11 58 -188 58 -101 0 -186 -3 -189 -7z m298 -84 c-11 -20 -33 -38 -62 -51 -39
-17 -52 -19 -84 -9 -35 11 -89 60 -89 82 0 5 55 9 125 9 l126 0 -16 -31z"/>
</g>
</svg>
