<?xml version="1.0" standalone="no"?>
<!DOCTYPE svg PUBLIC "-//W3C//DTD SVG 20010904//EN"
 "http://www.w3.org/TR/2001/REC-SVG-20010904/DTD/svg10.dtd">
<svg version="1.0" xmlns="http://www.w3.org/2000/svg"
 width="440.000000pt" height="439.000000pt" viewBox="0 0 440.000000 439.000000"
 preserveAspectRatio="xMidYMid meet">

<g transform="translate(0.000000,439.000000) scale(0.100000,-0.100000)"
fill="#FFFFFF" stroke="none">
<path d="M1548 3300 c-21 -11 -50 -36 -65 -55 -18 -22 -37 -35 -52 -35 -67 0
-141 -83 -141 -158 0 -17 -11 -48 -25 -68 -48 -71 -27 -167 45 -204 33 -17 59
-20 170 -20 l131 0 -16 -30 c-28 -54 -11 -141 34 -172 l21 -15 -25 -62 c-28
-68 -55 -184 -55 -236 0 -56 -8 -65 -55 -65 -58 0 -101 -35 -110 -89 -17 -104
29 -195 124 -242 49 -25 56 -32 79 -90 24 -61 24 -63 8 -108 -49 -138 8 -241
134 -241 100 0 154 52 152 148 0 63 -17 108 -69 195 -49 82 -99 94 -141 35
-22 -30 -30 -21 -52 50 -17 55 -20 90 -18 177 l3 109 38 8 c57 12 115 45 173
99 70 67 96 73 192 48 137 -37 146 -39 202 -39 30 0 95 11 145 25 49 14 109
25 133 25 37 0 49 -6 101 -54 65 -60 120 -92 178 -104 l38 -8 -1 -125 c-1
-107 -4 -133 -26 -191 -40 -107 -86 -176 -178 -268 -193 -193 -404 -240 -608
-136 -42 21 -57 25 -68 15 -26 -21 -15 -38 46 -69 112 -56 256 -76 355 -49
198 54 415 256 500 465 20 50 29 59 76 83 68 34 114 92 122 156 16 112 -17
166 -106 175 l-52 5 -7 69 c-13 138 -51 247 -119 347 -21 32 -39 60 -39 63 0
3 35 6 78 8 71 3 77 5 80 25 l3 22 -285 3 -284 3 -26 24 c-39 37 -36 85 9 127
19 18 35 39 35 47 0 44 24 79 71 103 45 22 49 27 49 59 0 118 121 204 225 160
50 -20 72 -41 96 -88 l19 -37 54 6 c51 6 55 5 92 -28 22 -20 55 -38 75 -42 49
-9 99 -62 106 -114 4 -28 15 -49 34 -67 39 -34 40 -91 4 -125 -22 -20 -37 -24
-101 -26 -78 -2 -101 -11 -91 -38 10 -25 171 -22 213 3 77 47 85 174 15 233
-12 10 -21 27 -21 38 0 58 -83 150 -136 150 -11 0 -31 11 -43 24 -32 34 -82
56 -128 56 -34 0 -44 6 -72 40 -67 83 -177 105 -279 54 -68 -34 -96 -73 -116
-165 -3 -16 -22 -37 -47 -53 -26 -18 -48 -43 -60 -72 l-20 -44 -29 15 c-16 8
-39 15 -51 15 -13 0 -36 16 -57 41 -37 43 -84 69 -125 69 -16 0 -31 12 -48 37
-30 46 -83 83 -119 83 -20 0 -35 10 -54 35 -55 72 -160 96 -238 55z m139 -49
c27 -13 48 -31 59 -53 21 -40 33 -49 60 -42 27 7 77 -18 98 -48 15 -21 14 -23
-22 -44 -20 -12 -45 -36 -55 -53 -13 -21 -26 -31 -43 -31 -35 0 -101 -36 -120
-65 -9 -14 -20 -40 -23 -58 l-7 -32 -142 -3 -143 -3 -29 30 c-38 37 -38 59 1
107 18 23 29 48 28 64 -3 54 2 71 30 102 23 26 36 32 71 33 38 1 45 5 76 48
22 30 45 50 66 56 46 13 48 13 95 -8z m369 -236 c13 -8 36 -34 50 -56 18 -28
30 -39 41 -35 9 4 31 2 49 -4 l34 -11 -15 -36 c-18 -42 -19 -86 -4 -116 20
-38 61 -76 90 -82 38 -9 38 -36 -2 -69 l-31 -26 -279 0 c-335 0 -349 4 -349
91 0 19 10 40 27 56 22 22 26 35 24 75 -1 42 3 53 32 85 29 31 41 37 76 37 38
1 45 5 70 41 48 71 124 92 187 50z m616 -393 c23 -27 55 -71 70 -98 35 -65 76
-207 80 -280 3 -58 3 -59 -22 -55 -38 5 -92 36 -125 71 -49 53 -114 90 -158
90 -21 0 -96 -14 -167 -31 l-129 -32 -123 32 c-68 17 -142 31 -164 31 -45 0
-109 -36 -159 -90 -50 -53 -141 -92 -152 -64 -8 21 24 185 48 247 37 93 14 87
338 87 262 0 289 2 317 19 30 18 64 74 64 105 0 14 17 16 119 16 l119 0 44
-48z m-1108 -524 c10 -39 7 -198 -4 -198 -20 0 -60 32 -80 65 -23 37 -28 123
-8 143 7 7 29 12 49 12 30 0 38 -4 43 -22z m1416 7 c8 -10 11 -35 8 -70 -4
-48 -10 -61 -43 -95 -60 -62 -65 -57 -65 70 l0 110 44 0 c27 0 48 -6 56 -15z
m-1187 -400 c72 -115 73 -195 3 -229 -32 -16 -44 -17 -77 -7 -38 12 -69 49
-69 85 0 45 78 206 100 206 5 0 24 -25 43 -55z"/>
<path d="M1444 3075 c-32 -32 -30 -78 4 -83 15 -2 22 2 22 13 0 9 12 27 26 40
30 27 26 55 -6 55 -12 0 -32 -11 -46 -25z"/>
<path d="M1805 2845 c-28 -27 -33 -63 -10 -71 18 -7 95 55 95 79 0 27 -56 22
-85 -8z"/>
<path d="M2470 2974 c-20 -17 -30 -34 -28 -48 4 -29 32 -31 60 -4 13 13 33 28
43 34 25 14 13 44 -19 44 -13 0 -39 -12 -56 -26z"/>
<path d="M1853 1963 c-4 -10 3 -24 21 -40 37 -31 121 -33 160 -2 52 41 21 73
-43 44 -35 -16 -41 -16 -69 -1 -40 20 -61 20 -69 -1z"/>
<path d="M2395 1970 c-11 -18 4 -47 31 -58 42 -20 118 -15 148 9 52 41 21 73
-43 44 -35 -16 -41 -16 -69 -1 -36 18 -58 20 -67 6z"/>
<path d="M2132 1659 c-53 -27 -71 -55 -48 -77 14 -15 18 -14 45 5 61 46 132
45 193 0 29 -21 30 -21 43 -4 18 25 10 42 -32 68 -52 32 -146 36 -201 8z"/>
</g>
</svg>
