<?xml version="1.0" standalone="no"?>
<!DOCTYPE svg PUBLIC "-//W3C//DTD SVG 20010904//EN"
 "http://www.w3.org/TR/2001/REC-SVG-20010904/DTD/svg10.dtd">
<svg version="1.0" xmlns="http://www.w3.org/2000/svg"
 width="440.000000pt" height="439.000000pt" viewBox="0 0 440.000000 439.000000"
 preserveAspectRatio="xMidYMid meet">

<g transform="translate(0.000000,439.000000) scale(0.100000,-0.100000)"
fill="#FFFFFF" stroke="none">
<path d="M2784 3076 c-43 -19 -64 -53 -64 -101 1 -66 30 -92 140 -120 36 -9
82 -21 104 -26 22 -6 35 -14 30 -19 -10 -10 -274 -160 -282 -160 -2 0 -24 18
-47 39 -79 73 -205 121 -315 121 -367 -1 -619 -388 -461 -711 18 -39 32 -54
46 -54 26 0 24 29 -9 120 -80 220 23 447 250 552 85 39 219 45 307 13 71 -26
103 -46 169 -107 43 -39 50 -42 70 -32 143 75 388 224 388 235 0 19 -19 26
-175 70 -145 40 -175 59 -157 98 6 13 20 27 31 31 17 5 525 -126 538 -139 7
-6 -135 -516 -148 -532 -18 -22 -57 -17 -75 11 -15 23 -14 30 11 117 63 211
65 228 26 228 -16 0 -369 -197 -394 -220 -11 -10 12 -121 29 -139 7 -8 20 -11
29 -7 14 5 16 14 11 45 -3 22 -9 46 -12 54 -4 11 33 37 138 96 79 44 144 76
146 72 2 -5 -8 -49 -22 -97 -40 -136 -32 -189 29 -219 41 -19 68 -19 104 0 36
18 47 47 105 270 26 99 58 217 70 262 18 63 21 86 12 97 -15 18 -76 37 -281
86 -93 23 -199 50 -234 61 -74 22 -67 22 -107 5z"/>
<path d="M1820 2799 c-83 -14 -196 -73 -261 -138 -259 -260 -162 -697 184
-823 l57 -21 0 -88 0 -89 -132 0 c-113 0 -138 -3 -164 -19 -42 -26 -60 -78
-44 -126 18 -56 48 -65 205 -65 l135 0 0 -130 c0 -178 21 -219 111 -220 49 0
83 22 100 67 5 13 9 83 9 154 l0 129 135 0 c166 0 185 7 208 82 11 33 -13 88
-46 108 -27 17 -51 20 -164 20 l-133 0 0 88 0 87 53 21 c52 22 52 22 100 3 65
-26 117 -26 117 1 0 14 -11 22 -42 31 -24 6 -46 13 -50 16 -5 2 13 22 38 44
37 32 53 39 87 39 l42 0 0 -93 c1 -85 4 -100 33 -160 65 -132 187 -216 327
-225 240 -15 428 173 413 413 -9 139 -87 258 -208 319 -190 94 -417 27 -515
-153 -24 -43 -33 -51 -57 -51 -15 0 -28 2 -28 4 0 2 14 34 31 71 43 96 57 207
37 305 -24 114 -41 150 -74 150 -30 0 -30 -5 7 -105 31 -83 31 -207 0 -287
-50 -129 -156 -230 -288 -274 -36 -12 -70 -30 -75 -39 -6 -9 -7 -66 -3 -135 7
-109 9 -119 29 -124 11 -3 76 -3 143 1 104 5 126 4 147 -11 19 -12 26 -25 26
-47 0 -50 -45 -62 -196 -53 -97 5 -127 4 -140 -7 -14 -12 -16 -31 -10 -149 8
-160 1 -185 -54 -185 -54 0 -62 25 -55 177 9 179 15 173 -144 164 -136 -7
-183 1 -202 35 -6 13 -6 25 1 39 20 37 46 43 169 35 176 -10 167 -17 176 125
8 137 2 155 -52 165 -121 22 -260 138 -303 252 -88 233 10 490 225 589 66 31
166 46 233 35 38 -6 57 -5 70 5 24 18 6 34 -50 45 -52 10 -86 9 -158 -2z
m1072 -616 c206 -92 260 -359 107 -527 -73 -80 -141 -111 -244 -111 -66 0 -90
5 -136 26 -147 69 -228 216 -199 362 28 142 111 233 250 272 71 19 147 12 222
-22z"/>
<path d="M2668 2119 c-14 -8 -18 -24 -18 -74 l0 -65 -65 0 c-61 0 -66 -2 -75
-26 -11 -29 -13 -82 -4 -136 l7 -38 68 0 69 0 0 -65 c0 -78 9 -85 104 -85 95
0 96 1 96 81 l0 69 69 0 c54 0 70 4 75 16 11 29 6 160 -6 172 -7 7 -39 12 -75
12 l-63 0 0 65 c0 53 -3 66 -19 75 -25 13 -141 13 -163 -1z m122 -105 c0 -85
9 -94 85 -94 l65 0 0 -40 0 -40 -59 0 c-78 0 -91 -13 -91 -91 l0 -59 -40 0
-40 0 0 63 c0 36 -5 68 -12 75 -7 7 -39 12 -75 12 l-63 0 0 40 0 40 63 0 c36
0 68 5 75 12 7 7 12 39 12 75 l0 63 40 0 40 0 0 -56z"/>
<path d="M2238 2631 c-67 -22 -128 -64 -168 -117 -35 -46 -70 -150 -70 -208 0
-54 25 -137 49 -168 18 -21 21 -22 36 -7 15 14 14 20 -4 68 -25 61 -28 165 -7
215 21 50 83 114 140 144 44 23 63 27 136 27 96 0 141 -18 196 -77 38 -40 74
-108 74 -141 0 -33 23 -62 44 -54 39 15 1 146 -65 221 -85 96 -238 138 -361
97z"/>
<path d="M1771 2623 c-55 -19 -129 -91 -159 -154 -86 -178 -23 -379 150 -471
37 -20 58 -23 143 -23 95 0 103 2 163 34 70 38 119 89 154 160 42 86 25 288
-27 307 -32 13 -37 -11 -15 -77 35 -104 10 -211 -68 -292 -54 -56 -105 -79
-188 -85 -61 -4 -80 -1 -125 20 -132 60 -204 208 -165 340 29 101 101 171 209
203 30 9 43 18 45 34 3 18 -1 21 -35 20 -21 0 -58 -8 -82 -16z"/>
</g>
</svg>
